:SAMPLES-PER-SECOND 30
:FULLY-SPECIFIED
:DEGREES
619
root  -52.2978 13.2883 -18.1338 -168.195 -53.9296 -173.713
RightUpLeg  -106.047 -6.74537 3.69153
RightLeg  132.24 1.04527 -0.980288
RightFoot  -30.2701 0.371502 1.9328
RightToes  -15.091 -0.0558163 -0.136229
Spine  15.3633 2.37813 1.57669
Spine1  24.7038 4.70898 3.15048
HEad  -110.348 -40.2297 44.6108
LeftShoulder1  -1.94126e-019 -3.10601e-018 -2.51263e-017
LeftArm  25.5314 -55.0135 -105.321
LeftForeArm  21.445 -9.40884 -1.66611
LeftHand  -0.0980991 2.36268 3.35503
RightShoulder  -4.96962e-017 0 -2.36833e-017
RightArm  26.7687 63.6481 100.09
RightForeArm  75.0249 12.2658 1.43986
RightHand  -0.480163 4.0487 -6.17007
LeftUpLeg  -102.855 13.2699 -0.172053
LeftLeg  134.746 -15.7792 17.3424
LeftFoot  -38.2387 -5.64291 -16.0211
LeftToes  14.1774 2.03064e-006 1.83538e-008
620
root  -52.2919 14.629 -17.6603 -165.661 -52.5468 -175.408
RightUpLeg  -104.263 -7.55696 2.74777
RightLeg  127.206 -0.212231 0.676247
RightFoot  -28.2637 0.0977518 0.93732
RightToes  -15.7302 -0.0589571 -0.141637
Spine  14.8052 2.30667 1.1245
Spine1  23.7957 4.67553 2.47293
HEad  -110.164 -40.067 44.8266
LeftShoulder1  -1.94126e-019 -3.10601e-018 -2.51263e-017
LeftArm  18.5059 -54.9 -105.82
LeftForeArm  39.1426 -4.46972 -0.766744
LeftHand  -0.443239 -3.04351 6.33867
RightShoulder  -4.96962e-017 0 -2.36833e-017
RightArm  29.6242 63.7484 100.616
RightForeArm  59.479 14.2972 1.17224
RightHand  -0.398245 2.27711 -6.22347
LeftUpLeg  -100.519 13.4484 -2.75157
LeftLeg  129.822 -14.715 19.1894
LeftFoot  -37.4474 -5.50959 -15.9982
LeftToes  13.953 2.03064e-006 1.83538e-008
621
root  -52.2435 15.9701 -17.2435 -164.629 -51.2423 -175.461
RightUpLeg  -102.151 -7.98576 3.03157
RightLeg  121.853 -0.971076 2.20552
RightFoot  -26.1093 -0.099021 0.112461
RightToes  -16.2271 -0.0614399 -0.145816
Spine  14.1991 2.30799 1.18793
Spine1  22.9178 4.68421 2.63446
HEad  -110.26 -39.5232 44.4444
LeftShoulder1  -1.94126e-019 -3.10601e-018 -2.51263e-017
LeftArm  19.7366 -53.9925 -103.938
LeftForeArm  36.8761 -5.53287 -0.958482
LeftHand  -0.380216 -1.67547 6.42119
RightShoulder  -4.96962e-017 0 -2.36833e-017
RightArm  28.7136 64.1162 99.8825
RightForeArm  59.1202 15.3828 1.02324
RightHand  -0.496079 1.72483 -8.25715
LeftUpLeg  -98.4188 14.0206 -4.00198
LeftLeg  125.081 -13.2655 20.6152
LeftFoot  -36.2293 -5.21823 -15.6988
LeftToes  13.3388 2.03064e-006 1.83538e-008
622
root  -52.1984 17.313 -16.8201 -163.636 -49.9742 -175.547
RightUpLeg  -99.8647 -8.18023 3.12258
RightLeg  116.266 -1.34053 3.67056
RightFoot  -23.9202 -0.214142 -0.479357
RightToes  -17.4517 -0.0677131 -0.156024
Spine  13.4674 2.36245 1.33587
Spine1  21.7829 4.86404 2.8748
HEad  -109.862 -39.1141 43.4736
LeftShoulder1  -1.94126e-019 -3.10601e-018 -2.51263e-017
LeftArm  18.8561 -52.9051 -103.269
LeftForeArm  35.1519 -5.08394 -0.878517
LeftHand  -0.426185 -1.0845 7.78402
RightShoulder  -4.96962e-017 0 -2.36833e-017
RightArm  27.1435 64.1533 99.2193
RightForeArm  58.9871 15.0701 1.06516
RightHand  -0.559835 0.772335 -10.6478
LeftUpLeg  -96.3274 14.5437 -5.17137
LeftLeg  120.271 -11.6376 21.9651
LeftFoot  -34.7321 -4.85918 -15.2913
LeftToes  12.3901 2.03064e-006 1.83538e-008
623
root  -52.1583 18.6562 -16.3965 -162.596 -48.7507 -175.918
RightUpLeg  -97.3281 -8.20425 2.80895
RightLeg  110.528 -1.38365 5.11232
RightFoot  -21.7821 -0.278148 -0.921215
RightToes  -19.0184 -0.0760547 -0.168884
Spine  12.8482 2.43684 1.36709
Spine1  20.7934 5.13954 2.85456
HEad  -109.71 -38.5283 42.9853
LeftShoulder1  -1.94126e-019 -3.10601e-018 -2.51263e-017
LeftArm  16.7142 -51.9029 -102.952
LeftForeArm  29.2305 -5.10137 -0.88699
LeftHand  -0.376818 0.0493624 8.25155
RightShoulder  -4.96962e-017 0 -2.36833e-017
RightArm  24.1649 64.2152 99.0715
RightForeArm  61.3442 13.1871 1.32086
RightHand  -0.57441 -0.0723262 -12.5745
LeftUpLeg  -93.9854 14.9409 -6.28826
LeftLeg  115.358 -9.75967 23.1171
LeftFoot  -33.0617 -4.44749 -14.7461
LeftToes  10.958 2.03064e-006 1.83538e-008
624
root  -52.1834 20.0044 -15.9822 -161.604 -47.5036 -176.856
RightUpLeg  -94.3389 -8.34458 1.99471
RightLeg  104.791 -1.14534 6.57427
RightFoot  -19.4966 -0.301909 -1.23968
RightToes  -20.6418 -0.0850653 -0.181962
Spine  12.4028 2.50315 1.25219
Spine1  20.0582 5.42219 2.54153
HEad  -109.936 -38.0279 42.7819
LeftShoulder1  -1.94126e-019 -3.10601e-018 -2.51263e-017
LeftArm  14.7571 -50.8232 -103.036
LeftForeArm  26.1545 -5.44221 -0.948911
LeftHand  -0.357533 0.601832 8.67829
RightShoulder  -4.96962e-017 0 -2.36833e-017
RightArm  19.8886 63.8463 98.0832
RightForeArm  65.133 11.2409 1.51276
RightHand  -0.531504 -0.430356 -12.4458
LeftUpLeg  -90.957 15.4781 -7.77676
LeftLeg  110.297 -7.59238 23.9079
LeftFoot  -31.7877 -4.11201 -14.21
LeftToes  10.8349 2.03064e-006 1.83538e-008
625
root  -52.2169 21.3806 -15.5663 -160.792 -46.3199 -177.86
RightUpLeg  -91.0886 -8.53665 1.16068
RightLeg  98.8106 -0.579966 7.91727
RightFoot  -16.8395 -0.281097 -1.38733
RightToes  -22.2242 -0.0942017 -0.19446
Spine  11.9426 2.55457 1.18882
Spine1  19.3175 5.63597 2.32233
HEad  -110.358 -37.5111 42.6077
LeftShoulder1  -1.94126e-019 -3.10601e-018 -2.51263e-017
LeftArm  14.2405 -49.5071 -103.311
LeftForeArm  26.1687 -6.34562 -1.10999
LeftHand  -0.323513 0.974935 8.47157
RightShoulder  -4.96962e-017 0 -2.36833e-017
RightArm  15.1417 62.7835 95.8334
RightForeArm  68.309 9.62577 1.51398
RightHand  -0.519804 -0.251102 -11.7648
LeftUpLeg  -87.6632 16.1191 -9.25119
LeftLeg  105.046 -5.19454 24.2873
LeftFoot  -30.1746 -3.67113 -13.3973
LeftToes  10.3164 2.03064e-006 1.83538e-008
626
root  -52.284 22.7525 -15.1544 -160.173 -45.0047 -179.241
RightUpLeg  -87.3128 -8.61543 -0.145885
RightLeg  92.6725 0.282713 9.13909
RightFoot  -14.1574 -0.235473 -1.38943
RightToes  -24.1405 -0.105723 -0.209251
Spine  11.5357 2.61996 1.0018
Spine1  18.6368 5.90407 1.8514
HEad  -110.358 -37.1115 42.2046
LeftShoulder1  -1.94126e-019 -3.10601e-018 -2.51263e-017
LeftArm  15.3088 -47.6144 -103.011
LeftForeArm  25.7037 -7.99769 -1.4023
LeftHand  -0.3422 0.69184 8.45406
RightShoulder  -4.96962e-017 0 -2.36833e-017
RightArm  11.224 60.7056 92.5438
RightForeArm  69.8555 8.69385 1.43348
RightHand  -0.489152 -0.339692 -11.259
LeftUpLeg  -83.652 16.6319 -10.4056
LeftLeg  99.725 -2.70774 24.1196
LeftFoot  -27.7935 -3.04096 -12.0854
LeftToes  7.14821 2.03064e-006 1.83538e-008
627
root  -52.3319 24.1245 -14.7332 -159.903 -43.5482 179.742
RightUpLeg  -83.3652 -8.31984 -1.30658
RightLeg  86.1196 1.45655 10.0686
RightFoot  -11.0694 -0.164933 -1.19842
RightToes  -25.8086 -0.116149 -0.221806
Spine  11.0116 2.71246 0.827308
Spine1  17.8115 6.15933 1.45205
HEad  -109.995 -36.8446 41.7803
LeftShoulder1  -1.94126e-019 -3.10601e-018 -2.51263e-017
LeftArm  15.7599 -45.6241 -102.356
LeftForeArm  25.3768 -9.80833 -1.72418
LeftHand  -0.338731 0.25452 7.69568
RightShoulder  -4.96962e-017 0 -2.36833e-017
RightArm  8.11749 57.7215 88.9052
RightForeArm  70.3177 8.42802 1.39912
RightHand  -0.494173 -0.380976 -11.4641
LeftUpLeg  -79.4186 16.8514 -10.3303
LeftLeg  94.6117 -0.359139 21.5952
LeftFoot  -24.0894 -2.01288 -9.2518
LeftToes  -0.530551 2.03064e-006 1.83538e-008
628
root  -52.335 25.5109 -14.2728 -159.636 -41.9772 179.31
RightUpLeg  -79.6491 -7.78502 -1.96007
RightLeg  78.8792 2.96055 10.7266
RightFoot  -7.49218 -0.0861165 -0.811513
RightToes  -28.0785 -0.130916 -0.238392
Spine  10.1274 2.78072 0.785214
Spine1  16.4353 6.29968 1.34064
HEad  -109.178 -36.6642 40.8177
LeftShoulder1  -1.94126e-019 -3.10601e-018 -2.51263e-017
LeftArm  16.0657 -43.3 -101.552
LeftForeArm  25.8977 -11.327 -1.96193
LeftHand  -0.356951 -0.306064 7.36105
RightShoulder  -4.96962e-017 0 -2.36833e-017
RightArm  6.68353 53.62 85.2743
RightForeArm  68.9893 9.20305 1.48593
RightHand  -0.466489 -0.659092 -11.4311
LeftUpLeg  -75.2226 16.2054 -8.87657
LeftLeg  89.0381 1.37619 16.3727
LeftFoot  -20.5664 -1.10205 -5.90727
LeftToes  -7.01536 2.03064e-006 1.83538e-008
